<svg xmlns="http://www.w3.org/2000/svg" style="display: none;" aria-hidden="true">

<symbol id="teia" preserveAspectRatio="xMidYMid" viewBox="0 0 1782 1782" fill-rule="evenodd" clip-rule="evenodd" stroke-linejoin="round" stroke-miterlimit="1.111"><path d="M1319.37,708.94v362.25h122.71V832.93H1546v239.91h119.51V708.94ZM353.23,1073.06V826.85H462.62v-117H116.53V832.45H228.79v240.61Zm834.65-.17V710.8h-118.4v362.09ZM592.14,826H938.2V709.55H592.14Zm.19,245.86H938.39V955.05H592.33Z" fill="#fff"/><path d="M1319.37,708.94h346.1v363.9H1546V832.93H1442.08v238.26H1319.37Z" fill="#fff"/><path d="M353.23,1073.06H228.79V832.45H116.53V709.88H462.62v117H353.23Z" fill="#fff"/><path d="M1187.88,1072.89h-118.4V710.8h118.4Z" fill="#fff"/><path d="M592.14,826V709.55H938.2V826Z" fill="#fff"/><path d="M592.33,1071.86V955.05H938.39v116.81Z" fill="#fff"/></symbol>

<symbol id="youtube" preserveAspectRatio="xMidYMid" viewBox="0 0 16 16" fill-rule="evenodd" clip-rule="evenodd" stroke-linejoin="round" stroke-miterlimit="1.111"><path d="M0 7.345c0-1.294.16-2.59.16-2.59s.156-1.1.636-1.587c.608-.637 1.408-.617 1.764-.684C3.84 2.36 8 2.324 8 2.324s3.362.004 5.6.166c.314.038.996.04 1.604.678.48.486.636 1.588.636 1.588S16 6.05 16 7.346v1.258c0 1.296-.16 2.59-.16 2.59s-.156 1.102-.636 1.588c-.608.638-1.29.64-1.604.678-2.238.162-5.6.166-5.6.166s-4.16-.037-5.44-.16c-.356-.067-1.156-.047-1.764-.684-.48-.487-.636-1.587-.636-1.587S0 9.9 0 8.605v-1.26zm6.348 2.73V5.58l4.323 2.255-4.32 2.24z"/></symbol>

<symbol id="facebook" preserveAspectRatio="xMidYMid" viewBox="0 0 16 16" fill-rule="evenodd" clip-rule="evenodd" stroke-linejoin="round" stroke-miterlimit="1.111"><path d="M15.117 0H.883C.395 0 0 .395 0 .883v14.234c0 .488.395.883.883.883h7.663V9.804H6.46V7.39h2.086V5.607c0-2.066 1.262-3.19 3.106-3.19.883 0 1.642.064 1.863.094v2.16h-1.28c-1 0-1.195.48-1.195 1.18v1.54h2.39l-.31 2.42h-2.08V16h4.077c.488 0 .883-.395.883-.883V.883C16 .395 15.605 0 15.117 0"/></symbol>

<symbol id="instagram" preserveAspectRatio="xMidYMid" viewBox="0 0 16 16" fill-rule="evenodd" clip-rule="evenodd" stroke-linejoin="round" stroke-miterlimit="1.111"><path d="M8 0C5.827 0 5.555.01 4.702.048 3.85.088 3.27.222 2.76.42c-.526.204-.973.478-1.417.923-.445.444-.72.89-.923 1.417-.198.51-.333 1.09-.372 1.942C.008 5.555 0 5.827 0 8s.01 2.445.048 3.298c.04.852.174 1.433.372 1.942.204.526.478.973.923 1.417.444.445.89.72 1.417.923.51.198 1.09.333 1.942.372.853.04 1.125.048 3.298.048s2.445-.01 3.298-.048c.852-.04 1.433-.174 1.942-.372.526-.204.973-.478 1.417-.923.445-.444.72-.89.923-1.417.198-.51.333-1.09.372-1.942.04-.853.048-1.125.048-3.298s-.01-2.445-.048-3.298c-.04-.852-.174-1.433-.372-1.942-.204-.526-.478-.973-.923-1.417-.444-.445-.89-.72-1.417-.923-.51-.198-1.09-.333-1.942-.372C10.445.008 10.173 0 8 0zm0 1.44c2.136 0 2.39.01 3.233.048.78.036 1.203.166 1.485.276.374.145.64.318.92.598.28.28.453.546.598.92.11.282.24.705.276 1.485.038.844.047 1.097.047 3.233s-.01 2.39-.05 3.233c-.04.78-.17 1.203-.28 1.485-.15.374-.32.64-.6.92-.28.28-.55.453-.92.598-.28.11-.71.24-1.49.276-.85.038-1.1.047-3.24.047s-2.39-.01-3.24-.05c-.78-.04-1.21-.17-1.49-.28-.38-.15-.64-.32-.92-.6-.28-.28-.46-.55-.6-.92-.11-.28-.24-.71-.28-1.49-.03-.84-.04-1.1-.04-3.23s.01-2.39.04-3.24c.04-.78.17-1.21.28-1.49.14-.38.32-.64.6-.92.28-.28.54-.46.92-.6.28-.11.7-.24 1.48-.28.85-.03 1.1-.04 3.24-.04zm0 2.452c-2.27 0-4.108 1.84-4.108 4.108 0 2.27 1.84 4.108 4.108 4.108 2.27 0 4.108-1.84 4.108-4.108 0-2.27-1.84-4.108-4.108-4.108zm0 6.775c-1.473 0-2.667-1.194-2.667-2.667 0-1.473 1.194-2.667 2.667-2.667 1.473 0 2.667 1.194 2.667 2.667 0 1.473-1.194 2.667-2.667 2.667zm5.23-6.937c0 .53-.43.96-.96.96s-.96-.43-.96-.96.43-.96.96-.96.96.43.96.96z"/></symbol>

<symbol id="linkedin" preserveAspectRatio="xMidYMid" viewBox="0 0 16 16" fill-rule="evenodd" clip-rule="evenodd" stroke-linejoin="round" stroke-miterlimit="1.111"><path d="M13.632 13.635h-2.37V9.922c0-.886-.018-2.025-1.234-2.025-1.235 0-1.424.964-1.424 1.96v3.778h-2.37V6H8.51v1.04h.03c.318-.6 1.092-1.233 2.247-1.233 2.4 0 2.845 1.58 2.845 3.637v4.188zM3.558 4.955c-.762 0-1.376-.617-1.376-1.377 0-.758.614-1.375 1.376-1.375.76 0 1.376.617 1.376 1.375 0 .76-.617 1.377-1.376 1.377zm1.188 8.68H2.37V6h2.376v7.635zM14.816 0H1.18C.528 0 0 .516 0 1.153v13.694C0 15.484.528 16 1.18 16h13.635c.652 0 1.185-.516 1.185-1.153V1.153C16 .516 15.467 0 14.815 0z"/></symbol>

<symbol id="twitter" preserveAspectRatio="xMidYMid" viewBox="0 0 16 16" fill-rule="evenodd" clip-rule="evenodd" stroke-linejoin="round" stroke-miterlimit="1.111"><path d="M16 3.038c-.59.26-1.22.437-1.885.517.677-.407 1.198-1.05 1.443-1.816-.634.37-1.337.64-2.085.79-.598-.64-1.45-1.04-2.396-1.04-1.812 0-3.282 1.47-3.282 3.28 0 .26.03.51.085.75-2.728-.13-5.147-1.44-6.766-3.42C.83 2.58.67 3.14.67 3.75c0 1.14.58 2.143 1.46 2.732-.538-.017-1.045-.165-1.487-.41v.04c0 1.59 1.13 2.918 2.633 3.22-.276.074-.566.114-.865.114-.21 0-.41-.02-.61-.058.42 1.304 1.63 2.253 3.07 2.28-1.12.88-2.54 1.404-4.07 1.404-.26 0-.52-.015-.78-.045 1.46.93 3.18 1.474 5.04 1.474 6.04 0 9.34-5 9.34-9.33 0-.14 0-.28-.01-.42.64-.46 1.2-1.04 1.64-1.7z"/></symbol>

<symbol id="rss" preserveAspectRatio="xMidYMid" viewBox="0 0 17 17" fill-rule="evenodd" clip-rule="evenodd" stroke-linejoin="round" stroke-miterlimit="1.111"><path d="M12.8 16C12.8 8.978 7.022 3.2 0 3.2V0c8.777 0 16 7.223 16 16h-3.2zM2.194 11.61c1.21 0 2.195.985 2.195 2.196 0 1.21-.99 2.194-2.2 2.194C.98 16 0 15.017 0 13.806c0-1.21.983-2.195 2.194-2.195zM10.606 16h-3.11c0-4.113-3.383-7.497-7.496-7.497v-3.11c5.818 0 10.606 4.79 10.606 10.607z"/></symbol>

<symbol id="magnifier" preserveAspectRatio="xMidYMid" viewBox="0 0 16 16" fill-rule="evenodd" clip-rule="evenodd" stroke-linejoin="round" stroke-miterlimit="1.111"><path d="M10.442 10.442a1 1 0 0 1 1.415 0l3.85 3.85a1 1 0 0 1-1.111 1.415l-3.85-3.85a1 1 0 0 1 0-1.415z"/><path d="M6.5 12a5.5 5.5 0 1 0 0-11 5.5 5.5 0 0 0 0 11zM13 6.5a6.5 6.5 0 1 1-13 0 6.5 6.5 0 0 1 13 0z"/></symbol>

<symbol id="snapchat" preserveAspectRatio="xMidYMid" viewBox="0 0 24 24" fill-rule="evenodd" clip-rule="evenodd" stroke-linejoin="round" stroke-miterlimit="1.111"><path d="M5.829 4.533c-.6 1.344-.363 3.752-.267 5.436-.648.359-1.48-.271-1.951-.271-.49 0-1.075.322-1.167.802-.066.346.089.85 1.201 1.289.43.17 1.453.37 1.69.928.333.784-1.71 4.403-4.918 4.931-.251.041-.43.265-.416.519.056.975 2.242 1.357 3.211 1.507.099.134.179.7.306 1.131.057.193.204.424.582.424.493 0 1.312-.38 2.738-.144 1.398.233 2.712 2.215 5.235 2.215 2.345 0 3.744-1.991 5.09-2.215.779-.129 1.448-.088 2.196.058.515.101.977.157 1.124-.349.129-.437.208-.992.305-1.123.96-.149 3.156-.53 3.211-1.505.014-.254-.165-.477-.416-.519-3.154-.52-5.259-4.128-4.918-4.931.236-.557 1.252-.755 1.69-.928.814-.321 1.222-.716 1.213-1.173-.011-.585-.715-.934-1.233-.934-.527 0-1.284.624-1.897.286.096-1.698.332-4.095-.267-5.438-1.135-2.543-3.66-3.829-6.184-3.829-2.508 0-5.014 1.268-6.158 3.833z"/></symbol>

<symbol id="spotify" preserveAspectRatio="xMidYMid" viewBox="0 0 24 24" fill-rule="evenodd" clip-rule="evenodd" stroke-linejoin="round" stroke-miterlimit="1.111"><path d="m12 0c-6.6 0-12 5.4-12 12s5.4 12 12 12 12-5.4 12-12-5.34-12-12-12zm5.521 17.34c-.24.359-.66.48-1.021.24-2.82-1.74-6.36-2.101-10.561-1.141-.418.122-.779-.179-.899-.539-.12-.421.18-.78.54-.9 4.56-1.021 8.52-.6 11.64 1.32.42.18.479.659.301 1.02zm1.44-3.3c-.301.42-.841.6-1.262.3-3.239-1.98-8.159-2.58-11.939-1.38-.479.12-1.02-.12-1.14-.6s.12-1.021.6-1.141c4.38-1.319 9.78-.658 13.5 1.621.361.181.54.78.241 1.2zm.12-3.36c-3.841-2.28-10.261-2.52-13.921-1.379-.6.179-1.2-.181-1.38-.721-.18-.601.18-1.2.72-1.381 4.26-1.26 11.28-1.02 15.721 1.621.539.3.719 1.02.419 1.56-.299.421-1.02.599-1.559.3z"/></symbol>

<symbol id="map" preserveAspectRatio="xMidYMid" viewBox="0 0 16 16" fill-rule="evenodd" clip-rule="evenodd" stroke-linejoin="round" stroke-miterlimit="1.111"><path d="M6 3.5A1.5 1.5 0 0 1 7.5 2h1A1.5 1.5 0 0 1 10 3.5v1A1.5 1.5 0 0 1 8.5 6v1H14a.5.5 0 0 1 .5.5v1a.5.5 0 0 1-1 0V8h-5v.5a.5.5 0 0 1-1 0V8h-5v.5a.5.5 0 0 1-1 0v-1A.5.5 0 0 1 2 7h5.5V6A1.5 1.5 0 0 1 6 4.5v-1zm-6 8A1.5 1.5 0 0 1 1.5 10h1A1.5 1.5 0 0 1 4 11.5v1A1.5 1.5 0 0 1 2.5 14h-1A1.5 1.5 0 0 1 0 12.5v-1zm6 0A1.5 1.5 0 0 1 7.5 10h1a1.5 1.5 0 0 1 1.5 1.5v1A1.5 1.5 0 0 1 8.5 14h-1A1.5 1.5 0 0 1 6 12.5v-1zm6 0a1.5 1.5 0 0 1 1.5-1.5h1a1.5 1.5 0 0 1 1.5 1.5v1a1.5 1.5 0 0 1-1.5 1.5h-1a1.5 1.5 0 0 1-1.5-1.5v-1z"/></symbol>

<symbol id="tiktok" preserveAspectRatio="xMidYMid" viewBox="0 0 24 24" fill-rule="evenodd" clip-rule="evenodd" stroke-linejoin="round" stroke-miterlimit="1.111"><path d="m12.53.02c1.31-.02 2.61-.01 3.91-.02.08 1.53.63 3.09 1.75 4.17 1.12 1.11 2.7 1.62 4.24 1.79v4.03c-1.44-.05-2.89-.35-4.2-.97-.57-.26-1.1-.59-1.62-.93-.01 2.92.01 5.84-.02 8.75-.08 1.4-.54 2.79-1.35 3.94-1.31 1.92-3.58 3.17-5.91 3.21-1.43.08-2.86-.31-4.08-1.03-2.02-1.19-3.44-3.37-3.65-5.71-.02-.5-.03-1-.01-1.49.18-1.9 1.12-3.72 2.58-4.96 1.66-1.44 3.98-2.13 6.15-1.72.02 1.48-.04 2.96-.04 4.44-.99-.32-2.15-.23-3.02.37-.63.41-1.11 1.04-1.36 1.75-.21.51-.15 1.07-.14 1.61.24 1.64 1.82 3.02 3.5 2.87 1.12-.01 2.19-.66 2.77-1.61.19-.33.4-.67.41-1.06.1-1.79.06-3.57.07-5.36.01-4.03-.01-8.05.02-12.07z"/></symbol>

<symbol id="apple" preserveAspectRatio="xMidYMid" viewBox="0 0 24 24" fill-rule="evenodd" clip-rule="evenodd" stroke-linejoin="round" stroke-miterlimit="1.111"><path d="m5.34 0a5.328 5.328 0 0 0 -5.34 5.34v13.32a5.328 5.328 0 0 0 5.34 5.34h13.32a5.328 5.328 0 0 0 5.34-5.34v-13.32a5.328 5.328 0 0 0 -5.34-5.34zm6.525 2.568c2.336 0 4.448.902 6.056 2.587 1.224 1.272 1.912 2.619 2.264 4.392.12.59.12 2.2.007 2.864a8.506 8.506 0 0 1 -3.24 5.296c-.608.46-2.096 1.261-2.336 1.261-.088 0-.096-.091-.056-.46.072-.592.144-.715.48-.856.536-.224 1.448-.874 2.008-1.435a7.644 7.644 0 0 0 2.008-3.536c.208-.824.184-2.656-.048-3.504-.728-2.696-2.928-4.792-5.624-5.352-.784-.16-2.208-.16-3 0-2.728.56-4.984 2.76-5.672 5.528-.184.752-.184 2.584 0 3.336.456 1.832 1.64 3.512 3.192 4.512.304.2.672.408.824.472.336.144.408.264.472.856.04.36.03.464-.056.464-.056 0-.464-.176-.896-.384l-.04-.03c-2.472-1.216-4.056-3.274-4.632-6.012-.144-.706-.168-2.392-.03-3.04.36-1.74 1.048-3.1 2.192-4.304 1.648-1.737 3.768-2.656 6.128-2.656zm.134 2.81c.409.004.803.04 1.106.106 2.784.62 4.76 3.408 4.376 6.174-.152 1.114-.536 2.03-1.216 2.88-.336.43-1.152 1.15-1.296 1.15-.023 0-.048-.272-.048-.603v-.605l.416-.496c1.568-1.878 1.456-4.502-.256-6.224-.664-.67-1.432-1.064-2.424-1.246-.64-.118-.776-.118-1.448-.008-1.02.167-1.81.562-2.512 1.256-1.72 1.704-1.832 4.342-.264 6.222l.413.496v.608c0 .336-.027.608-.06.608-.03 0-.264-.16-.512-.36l-.034-.011c-.832-.664-1.568-1.842-1.872-2.997-.184-.698-.184-2.024.008-2.72.504-1.878 1.888-3.335 3.808-4.019.41-.145 1.133-.22 1.814-.211zm-.13 2.99c.31 0 .62.06.844.178.488.253.888.745 1.04 1.259.464 1.578-1.208 2.96-2.72 2.254h-.015c-.712-.331-1.096-.956-1.104-1.77 0-.733.408-1.371 1.112-1.745.224-.117.534-.176.844-.176zm-.011 4.728c.988-.004 1.706.349 1.97.97.198.464.124 1.932-.218 4.302-.232 1.656-.36 2.074-.68 2.356-.44.39-1.064.498-1.656.288h-.003c-.716-.257-.87-.605-1.164-2.644-.341-2.37-.416-3.838-.218-4.302.262-.616.974-.966 1.97-.97z"/></symbol>

<symbol id="mintbase" preserveAspectRatio="xMidYMid" viewBox="0 0 700 700" fill-rule="evenodd" clip-rule="evenodd" stroke-linejoin="round" stroke-miterlimit="1.111">	<path d="M205.9,494.1L205.9,494.1c-22.8,0-41.2,18.4-41.2,41.2s18.4,41.2,41.2,41.2s41.2-18.4,41.2-41.2 c0,0,0,0,0,0C247,512.6,228.6,494.1,205.9,494.1L205.9,494.1z"/><path d="M308.8,288.2c-22.7,0-41.1,18.5-41.1,41.2s18.5,41.1,41.2,41.1c22.7,0,41.1-18.4,41.1-41.2 C350,306.7,331.5,288.2,308.8,288.2z"/><path d="M411.7,82.3c-22.8,0-41.2,18.4-41.2,41.2s18.4,41.2,41.2,41.2s41.2-18.4,41.2-41.2c0,0,0,0,0,0 C452.9,100.8,434.5,82.4,411.7,82.3z"/><path d="M411.7,576.5c22.8,0,41.2-18.4,41.2-41.2s-18.4-41.2-41.2-41.2s-41.2,18.4-41.2,41.2c0,0,0,0,0,0.1 C370.6,558,389,576.4,411.7,576.5z"/><path d="M350,0C156.7,0,0,156.7-0.1,350c0,193.3,156.7,350,350,350s350-156.7,350-350c0,0,0,0,0,0 C700,156.7,543.3,0,350,0z M514.7,391.2c-34.1,0-61.8-27.6-61.8-61.7c0,0,0,0,0,0v-41.2H355c22.8,25.4,20.6,64.5-4.8,87.2 c-11.3,10.1-26,15.8-41.2,15.7c-15.3,0.2-30-5.4-41.3-15.8v98.1h144.1c33.5-0.6,61.1,26,61.8,59.5c0,0.8,0,1.5,0,2.2 c0,34.1-27.6,61.8-61.8,61.8c-34.1,0-61.8-27.7-61.7-61.8c0-15.2,5.6-29.8,15.7-41.1h-98.1v41.2c0,34.1-27.6,61.8-61.8,61.8 s-61.8-27.6-61.8-61.8s27.6-61.8,61.8-61.8c0,0,0,0,0,0h41.2V329.4c0-34.1,27.6-61.7,61.7-61.8c0,0,0,0,0.1,0h144.1v-98.1 c-25.4,22.7-64.5,20.6-87.2-4.9s-20.5-64.5,4.9-87.2s64.5-20.5,87.2,4.9c10.1,11.3,15.7,26,15.7,41.2l0,0v144.1h41.2 c34.1,0,61.8,27.6,61.8,61.7S548.8,391.1,514.7,391.2C514.7,391.2,514.7,391.2,514.7,391.2z"/><path d="M514.7,288.2c-22.8,0-41.2,18.4-41.2,41.2s18.4,41.2,41.2,41.2s41.2-18.4,41.2-41.2c0,0,0,0,0,0 C555.8,306.7,537.4,288.3,514.7,288.2z"/></symbol>

<symbol id="versum" preserveAspectRatio="xMidYMid" viewBox="0 0 886 886" fill-rule="evenodd" clip-rule="evenodd" stroke-linejoin="round" stroke-miterlimit="1.111"><path d="M728.29,763.83c-9.86,8-19.58,16.37-29.8,24.08q-92.49,69.83-208,80.74c-77.05,7.17-151.74-1.59-223.2-33C168.06,792.06,56.22,687.17,22.65,546.8,10.1,494.31,7.5,441.29,13,387.75c8.91-86.42,42.73-161.94,99.84-227.25,2-2.25,3.74-4.68,5.13-6.43Z"/><path d="M481,439.9,766.55,154.6c20.64,22.49,38.82,47.92,55.08,76.41L613.49,439.47Q717.84,543.9,821.58,647.74a422.13,422.13,0,0,1-54.71,76.43Z"/><path d="M650.71,60a411.41,411.41,0,0,1,76.57,55.4L441.88,400.57,157.06,115.18C179.32,94.61,205,76.24,233.68,60L442.23,268.33C511.93,198.68,581.16,129.52,650.71,60Z"/><path d="M687.17,439.18c15.08-15.11,29.77-30,44.69-44.57a11.17,11.17,0,0,1,7.13-2.83c43.23-.11,86.47,0,129.7.09.62,0,1.24.43,3,1.09,3.91,30.59,3.47,61.64.13,93.33-3.58.25-6.53.63-9.48.63-39.85,0-79.71-.07-119.57.12-5.78,0-10.17-1.34-14.29-5.63-11.69-12.18-23.81-24-35.71-35.91C690.91,443.63,689.26,441.55,687.17,439.18Z"/></symbol>

<symbol id="objkt" preserveAspectRatio="xMidYMid" viewBox="0 0 3996 3996" fill-rule="evenodd" clip-rule="evenodd" stroke-linejoin="round" stroke-miterlimit="1.111">  <path d="M3996,3996H0V0H3996ZM971.86,2272.85c31.37,0,61.28-2.69,90.52.6,49.39,5.56,84.4-5.11,89-62.07.13-1.59,5.06-2.79,7.7-4.15,146.39,140.07,343.67,62.82,403.28-50.83C1637,2014,1643.88,1865,1575,1720c-66.94-140.92-250.78-177.51-374.18-82.31-5.76,4.44-12.36,7.82-18.69,11.77V1297.32H971.86Zm226.68-471.55c10.66-37.17,36.57-62.72,78.28-66.9,41.86-4.2,74.55,11.07,99,45.08,48.9,68.06,54.1,225.39,9.65,296.61-24.39,39.07-61,56.34-105.48,53.51-42.86-2.73-71.14-29.51-82.31-69.18-11.57-41.12-17.05-84-25.61-128.17C1180.62,1888.44,1186.31,1843.93,1198.54,1801.3Zm1719-212c-36.57-5.15-58.8,3.9-82,29.05-53.51,58.07-108.89,114.42-163.51,171.48l-11.22-9V1297.81H2452.1v971.81h204.07c0-72.68-2-142.29,1.09-211.66,1.08-24.23,14.71-47.9,27-85.07,70.55,100.33,130,186,191.07,270.61,9.68,13.41,25.89,30.34,39.81,31,65.42,3.27,131.1,1.45,210,1.45l-300-420.69,265.05-264.11C3023.35,1591.19,2969.53,1596.65,2917.5,1589.34ZM538,2282.6c192.9-.28,340.48-151.43,340.37-348.6-.1-192.45-155-350.65-342.13-349.55C350.44,1585.54,200,1741.7,199.67,1933.67,199.38,2133.77,344,2282.89,538,2282.6Zm94.51-214.33c-47.65,72.16-142.72,67.79-192.63-3-47-66.66-48.26-192.71-2.6-260.41,51.82-76.82,155.2-78.5,202.33,1.16,21.93,37.07,29,82.91,44.78,130.65C667.52,1981.06,657.87,2029.85,632.5,2068.27ZM1780.86,1597.1v159.18H2011c0,97.84.64,190.49-.19,283.12-.76,84.61-.65,169.35-5.71,253.75-3,50.13-29.34,68.14-79.57,69.08-65.58,1.23-95.6-40.95-116.73-104.36l-121,159c86.81,105.51,216.14,140.59,348.13,96.33,114.39-38.37,179.42-126.93,181.65-263,3.44-209.17,1.48-418.42,1.61-627.64,0-7.85-2-15.71-3.3-25.4Zm1969.75,158.07V1593.42H3540.8c8.78-65.3,16.78-124.73,25.22-187.5l-219.64,29.66c-2.61,55-4.94,104.29-7.52,158.68H3200.29v162.67h128.85c0,42.23-.27,78.57.05,114.91.58,64.6-3.55,129.75,3.5,193.65,10.32,93.56,45.58,175.8,146.86,204.34,107.1,30.18,207,6.25,299-52.9,9-5.76,19.18-21,17.56-29.8-7.58-41.14-19.1-81.56-29.82-124.69-27.34,15.45-48.1,29.23-70.47,39.47-91.72,42-152.45,11-160.48-89.2-6.7-83.56-1.37-168.09-1.37-257.54ZM3159.55,2758.64h65.88c0-77-2.61-151.57,1.75-225.7,1.15-19.62-3.49-51.69,36.5-56.91,8.53,18,21.55,35.24,24.53,54.08,4.34,27.59,1.6,56.31,1.66,84.54.1,47.64,0,95.28,0,144.29h63.47c0-71.64-.33-141,.15-210.35.22-32.31,3.28-117.2,54.17-47.34,0,98,.88,164.26.88,258H3483c0-82.95,3-164-1.53-244.7-1.67-30-12.61-70.07-33.91-85.8-32.52-24-72.81-9.56-98.56,19.27-21-10-39.67-26.16-58.5-26.33-42.7-.38-85.48,7.12-131,11.69Zm-46.89-167.4c-.85-96.56-71.37-170.58-163.31-171.42-93.47-.85-167,76.32-165.56,173.78,1.45,99.29,69.33,170.2,163,170.24C3043.64,2763.88,3113.53,2691.16,3112.66,2591.24Zm-166.93,109.07c-47.15-1.68-81.3-50.27-79.75-113.48,1.46-60.08,38.15-104.88,84.75-103.48,45.52,1.37,80.28,48.61,79.74,108.37C3029.89,2655.42,2993.54,2702,2945.73,2700.31Zm-458-241.3c-76.85,62.63-85.24,181-17.92,252.71,68.12,72.5,194.45,70.49,262.43-5.49-12.91-14.55-25.95-29.25-38.74-43.65-79.18,49.54-131.29,47.76-167.13-4.39-33.68-49-22.91-124.13,22.52-157.12,45.17-32.81,101.13-21.23,143.17,31.41l43.23-45.48C2680.06,2406.39,2566.39,2394.86,2487.7,2459ZM1977.61,1335.1c-1.31,63.63,54.92,118.85,121.76,119.57,65.41.71,125.89-55.43,125.62-116.61-.27-62.11-58.17-114.58-126.22-114.39C2028.69,1223.87,1979,1269.6,1977.61,1335.1Zm233.93,1437.23c14.72-19.94,38.08-38.28,42.1-60.18,5.77-31.41-16.17-51.87-50.73-52.83s-57.59,19.72-54.64,50c2.14,21.91,25.6,41.74,39.56,62.5Z"/>
</symbol>

</svg>
