<svg visibility="hidden" aria-hidden="true" xmlns="http://www.w3.org/2000/svg">

<symbol id="youtube" viewBox="0 0 22 22" fill-rule="evenodd" clip-rule="evenodd" stroke-linejoin="round" stroke-miterlimit="1.111"><path d="M0 7.345c0-1.294.16-2.59.16-2.59s.156-1.1.636-1.587c.608-.637 1.408-.617 1.764-.684C3.84 2.36 8 2.324 8 2.324s3.362.004 5.6.166c.314.038.996.04 1.604.678.48.486.636 1.588.636 1.588S16 6.05 16 7.346v1.258c0 1.296-.16 2.59-.16 2.59s-.156 1.102-.636 1.588c-.608.638-1.29.64-1.604.678-2.238.162-5.6.166-5.6.166s-4.16-.037-5.44-.16c-.356-.067-1.156-.047-1.764-.684-.48-.487-.636-1.587-.636-1.587S0 9.9 0 8.605v-1.26zm6.348 2.73V5.58l4.323 2.255-4.32 2.24z"/></symbol>

<symbol id="facebook" viewBox="0 0 22 22" fill-rule="evenodd" clip-rule="evenodd" stroke-linejoin="round" stroke-miterlimit="1.111"><path d="M15.117 0H.883C.395 0 0 .395 0 .883v14.234c0 .488.395.883.883.883h7.663V9.804H6.46V7.39h2.086V5.607c0-2.066 1.262-3.19 3.106-3.19.883 0 1.642.064 1.863.094v2.16h-1.28c-1 0-1.195.48-1.195 1.18v1.54h2.39l-.31 2.42h-2.08V16h4.077c.488 0 .883-.395.883-.883V.883C16 .395 15.605 0 15.117 0"/></symbol>

<symbol id="instagram" viewBox="0 0 22 22" fill-rule="evenodd" clip-rule="evenodd" stroke-linejoin="round" stroke-miterlimit="1.111"><path d="M8 0C5.827 0 5.555.01 4.702.048 3.85.088 3.27.222 2.76.42c-.526.204-.973.478-1.417.923-.445.444-.72.89-.923 1.417-.198.51-.333 1.09-.372 1.942C.008 5.555 0 5.827 0 8s.01 2.445.048 3.298c.04.852.174 1.433.372 1.942.204.526.478.973.923 1.417.444.445.89.72 1.417.923.51.198 1.09.333 1.942.372.853.04 1.125.048 3.298.048s2.445-.01 3.298-.048c.852-.04 1.433-.174 1.942-.372.526-.204.973-.478 1.417-.923.445-.444.72-.89.923-1.417.198-.51.333-1.09.372-1.942.04-.853.048-1.125.048-3.298s-.01-2.445-.048-3.298c-.04-.852-.174-1.433-.372-1.942-.204-.526-.478-.973-.923-1.417-.444-.445-.89-.72-1.417-.923-.51-.198-1.09-.333-1.942-.372C10.445.008 10.173 0 8 0zm0 1.44c2.136 0 2.39.01 3.233.048.78.036 1.203.166 1.485.276.374.145.64.318.92.598.28.28.453.546.598.92.11.282.24.705.276 1.485.038.844.047 1.097.047 3.233s-.01 2.39-.05 3.233c-.04.78-.17 1.203-.28 1.485-.15.374-.32.64-.6.92-.28.28-.55.453-.92.598-.28.11-.71.24-1.49.276-.85.038-1.1.047-3.24.047s-2.39-.01-3.24-.05c-.78-.04-1.21-.17-1.49-.28-.38-.15-.64-.32-.92-.6-.28-.28-.46-.55-.6-.92-.11-.28-.24-.71-.28-1.49-.03-.84-.04-1.1-.04-3.23s.01-2.39.04-3.24c.04-.78.17-1.21.28-1.49.14-.38.32-.64.6-.92.28-.28.54-.46.92-.6.28-.11.7-.24 1.48-.28.85-.03 1.1-.04 3.24-.04zm0 2.452c-2.27 0-4.108 1.84-4.108 4.108 0 2.27 1.84 4.108 4.108 4.108 2.27 0 4.108-1.84 4.108-4.108 0-2.27-1.84-4.108-4.108-4.108zm0 6.775c-1.473 0-2.667-1.194-2.667-2.667 0-1.473 1.194-2.667 2.667-2.667 1.473 0 2.667 1.194 2.667 2.667 0 1.473-1.194 2.667-2.667 2.667zm5.23-6.937c0 .53-.43.96-.96.96s-.96-.43-.96-.96.43-.96.96-.96.96.43.96.96z"/></symbol>

<symbol id="linkedin" viewBox="0 0 22 22" fill-rule="evenodd" clip-rule="evenodd" stroke-linejoin="round" stroke-miterlimit="1.111"><path d="M13.632 13.635h-2.37V9.922c0-.886-.018-2.025-1.234-2.025-1.235 0-1.424.964-1.424 1.96v3.778h-2.37V6H8.51v1.04h.03c.318-.6 1.092-1.233 2.247-1.233 2.4 0 2.845 1.58 2.845 3.637v4.188zM3.558 4.955c-.762 0-1.376-.617-1.376-1.377 0-.758.614-1.375 1.376-1.375.76 0 1.376.617 1.376 1.375 0 .76-.617 1.377-1.376 1.377zm1.188 8.68H2.37V6h2.376v7.635zM14.816 0H1.18C.528 0 0 .516 0 1.153v13.694C0 15.484.528 16 1.18 16h13.635c.652 0 1.185-.516 1.185-1.153V1.153C16 .516 15.467 0 14.815 0z"/></symbol>

<symbol id="twitter" viewBox="0 0 22 22" fill-rule="evenodd" clip-rule="evenodd" stroke-linejoin="round" stroke-miterlimit="1.111"><path d="M16 3.038c-.59.26-1.22.437-1.885.517.677-.407 1.198-1.05 1.443-1.816-.634.37-1.337.64-2.085.79-.598-.64-1.45-1.04-2.396-1.04-1.812 0-3.282 1.47-3.282 3.28 0 .26.03.51.085.75-2.728-.13-5.147-1.44-6.766-3.42C.83 2.58.67 3.14.67 3.75c0 1.14.58 2.143 1.46 2.732-.538-.017-1.045-.165-1.487-.41v.04c0 1.59 1.13 2.918 2.633 3.22-.276.074-.566.114-.865.114-.21 0-.41-.02-.61-.058.42 1.304 1.63 2.253 3.07 2.28-1.12.88-2.54 1.404-4.07 1.404-.26 0-.52-.015-.78-.045 1.46.93 3.18 1.474 5.04 1.474 6.04 0 9.34-5 9.34-9.33 0-.14 0-.28-.01-.42.64-.46 1.2-1.04 1.64-1.7z"/></symbol>

<symbol id="rss" viewBox="0 0 26 26" fill-rule="evenodd" clip-rule="evenodd" stroke-linejoin="round" stroke-miterlimit="1.111"><path d="M12.8 16C12.8 8.978 7.022 3.2 0 3.2V0c8.777 0 16 7.223 16 16h-3.2zM2.194 11.61c1.21 0 2.195.985 2.195 2.196 0 1.21-.99 2.194-2.2 2.194C.98 16 0 15.017 0 13.806c0-1.21.983-2.195 2.194-2.195zM10.606 16h-3.11c0-4.113-3.383-7.497-7.496-7.497v-3.11c5.818 0 10.606 4.79 10.606 10.607z"/></symbol>

<symbol id="magnifier" viewBox="0 0 22 22" fill-rule="evenodd" clip-rule="evenodd" stroke-linejoin="round" stroke-miterlimit="1.111"><path d="M10.442 10.442a1 1 0 0 1 1.415 0l3.85 3.85a1 1 0 0 1-1.111 1.415l-3.85-3.85a1 1 0 0 1 0-1.415z"/><path d="M6.5 12a5.5 5.5 0 1 0 0-11 5.5 5.5 0 0 0 0 11zM13 6.5a6.5 6.5 0 1 1-13 0 6.5 6.5 0 0 1 13 0z"/></symbol>

<symbol id="snapchat" viewBox="0 0 32 32" fill-rule="evenodd" clip-rule="evenodd" stroke-linejoin="round" stroke-miterlimit="1.111"><path d="M5.829 4.533c-.6 1.344-.363 3.752-.267 5.436-.648.359-1.48-.271-1.951-.271-.49 0-1.075.322-1.167.802-.066.346.089.85 1.201 1.289.43.17 1.453.37 1.69.928.333.784-1.71 4.403-4.918 4.931-.251.041-.43.265-.416.519.056.975 2.242 1.357 3.211 1.507.099.134.179.7.306 1.131.057.193.204.424.582.424.493 0 1.312-.38 2.738-.144 1.398.233 2.712 2.215 5.235 2.215 2.345 0 3.744-1.991 5.09-2.215.779-.129 1.448-.088 2.196.058.515.101.977.157 1.124-.349.129-.437.208-.992.305-1.123.96-.149 3.156-.53 3.211-1.505.014-.254-.165-.477-.416-.519-3.154-.52-5.259-4.128-4.918-4.931.236-.557 1.252-.755 1.69-.928.814-.321 1.222-.716 1.213-1.173-.011-.585-.715-.934-1.233-.934-.527 0-1.284.624-1.897.286.096-1.698.332-4.095-.267-5.438-1.135-2.543-3.66-3.829-6.184-3.829-2.508 0-5.014 1.268-6.158 3.833z"/></symbol>

<symbol id="map" viewBox="0 0 22 22" fill-rule="evenodd" clip-rule="evenodd" stroke-linejoin="round" stroke-miterlimit="1.111"><path d="M6 3.5A1.5 1.5 0 0 1 7.5 2h1A1.5 1.5 0 0 1 10 3.5v1A1.5 1.5 0 0 1 8.5 6v1H14a.5.5 0 0 1 .5.5v1a.5.5 0 0 1-1 0V8h-5v.5a.5.5 0 0 1-1 0V8h-5v.5a.5.5 0 0 1-1 0v-1A.5.5 0 0 1 2 7h5.5V6A1.5 1.5 0 0 1 6 4.5v-1zm-6 8A1.5 1.5 0 0 1 1.5 10h1A1.5 1.5 0 0 1 4 11.5v1A1.5 1.5 0 0 1 2.5 14h-1A1.5 1.5 0 0 1 0 12.5v-1zm6 0A1.5 1.5 0 0 1 7.5 10h1a1.5 1.5 0 0 1 1.5 1.5v1A1.5 1.5 0 0 1 8.5 14h-1A1.5 1.5 0 0 1 6 12.5v-1zm6 0a1.5 1.5 0 0 1 1.5-1.5h1a1.5 1.5 0 0 1 1.5 1.5v1a1.5 1.5 0 0 1-1.5 1.5h-1a1.5 1.5 0 0 1-1.5-1.5v-1z"/></symbol>

<symbol id="apple" viewBox="0 0 32 32" fill-rule="evenodd" clip-rule="evenodd" stroke-linejoin="round" stroke-miterlimit="1.111"><path d="m5.34 0a5.328 5.328 0 0 0 -5.34 5.34v13.32a5.328 5.328 0 0 0 5.34 5.34h13.32a5.328 5.328 0 0 0 5.34-5.34v-13.32a5.328 5.328 0 0 0 -5.34-5.34zm6.525 2.568c2.336 0 4.448.902 6.056 2.587 1.224 1.272 1.912 2.619 2.264 4.392.12.59.12 2.2.007 2.864a8.506 8.506 0 0 1 -3.24 5.296c-.608.46-2.096 1.261-2.336 1.261-.088 0-.096-.091-.056-.46.072-.592.144-.715.48-.856.536-.224 1.448-.874 2.008-1.435a7.644 7.644 0 0 0 2.008-3.536c.208-.824.184-2.656-.048-3.504-.728-2.696-2.928-4.792-5.624-5.352-.784-.16-2.208-.16-3 0-2.728.56-4.984 2.76-5.672 5.528-.184.752-.184 2.584 0 3.336.456 1.832 1.64 3.512 3.192 4.512.304.2.672.408.824.472.336.144.408.264.472.856.04.36.03.464-.056.464-.056 0-.464-.176-.896-.384l-.04-.03c-2.472-1.216-4.056-3.274-4.632-6.012-.144-.706-.168-2.392-.03-3.04.36-1.74 1.048-3.1 2.192-4.304 1.648-1.737 3.768-2.656 6.128-2.656zm.134 2.81c.409.004.803.04 1.106.106 2.784.62 4.76 3.408 4.376 6.174-.152 1.114-.536 2.03-1.216 2.88-.336.43-1.152 1.15-1.296 1.15-.023 0-.048-.272-.048-.603v-.605l.416-.496c1.568-1.878 1.456-4.502-.256-6.224-.664-.67-1.432-1.064-2.424-1.246-.64-.118-.776-.118-1.448-.008-1.02.167-1.81.562-2.512 1.256-1.72 1.704-1.832 4.342-.264 6.222l.413.496v.608c0 .336-.027.608-.06.608-.03 0-.264-.16-.512-.36l-.034-.011c-.832-.664-1.568-1.842-1.872-2.997-.184-.698-.184-2.024.008-2.72.504-1.878 1.888-3.335 3.808-4.019.41-.145 1.133-.22 1.814-.211zm-.13 2.99c.31 0 .62.06.844.178.488.253.888.745 1.04 1.259.464 1.578-1.208 2.96-2.72 2.254h-.015c-.712-.331-1.096-.956-1.104-1.77 0-.733.408-1.371 1.112-1.745.224-.117.534-.176.844-.176zm-.011 4.728c.988-.004 1.706.349 1.97.97.198.464.124 1.932-.218 4.302-.232 1.656-.36 2.074-.68 2.356-.44.39-1.064.498-1.656.288h-.003c-.716-.257-.87-.605-1.164-2.644-.341-2.37-.416-3.838-.218-4.302.262-.616.974-.966 1.97-.97z"/></symbol>

</svg>
